<?xml version="1.0" encoding="iso-8859-1"?>
<!-- Generator: Adobe Illustrator 19.0.0, SVG Export Plug-In . SVG Version: 6.00 Build 0)  -->
<svg version="1.1" id="Capa_1" xmlns="http://www.w3.org/2000/svg" xmlns:xlink="http://www.w3.org/1999/xlink" x="0px" y="0px"
	 viewBox="0 0 512 512" style="enable-background:new 0 0 512 512;" xml:space="preserve">
<path style="fill:#74B9DF;" d="M147.177,327.199c-2.859,0-5.177-2.318-5.177-5.178V176.264H5.177c-2.859,0-5.177,2.317-5.177,5.177
	v269.823c0,2.86,2.318,5.178,5.177,5.178h248.62l31.247,31.247c0.99,0.99,2.314,1.517,3.661,1.517c0.668,0,1.34-0.128,1.98-0.395
	c1.936-0.801,3.196-2.689,3.196-4.782v-27.587h40.222c2.859,0,5.178-2.317,5.178-5.178V327.199H147.177z"/>
<g style="opacity:0.1;">
	<path d="M27.979,451.264V181.44c0-2.859,2.318-5.177,5.177-5.177H5.177C2.318,176.263,0,178.58,0,181.44v269.823
		c0,2.86,2.318,5.178,5.177,5.178h27.979C30.297,456.441,27.979,454.124,27.979,451.264z"/>
</g>
<g>
	<path style="fill:#08375E;" d="M292.159,327.199H147.177c-1.688,0-3.173-0.82-4.119-2.071H59.142c-4.142,0-7.5,3.357-7.5,7.5
		s3.358,7.5,7.5,7.5h227.852c4.143,0,7.5-3.357,7.5-7.5C294.493,330.489,293.594,328.565,292.159,327.199z"/>
	<path style="fill:#08375E;" d="M142,292.577H59.142c-4.142,0-7.5,3.357-7.5,7.5s3.358,7.5,7.5,7.5H142V292.577z"/>
	<path style="fill:#08375E;" d="M142,227.478H59.142c-4.142,0-7.5,3.357-7.5,7.5s3.358,7.5,7.5,7.5H142V227.478z"/>
	<path style="fill:#08375E;" d="M142,260.028H59.142c-4.142,0-7.5,3.357-7.5,7.5s3.358,7.5,7.5,7.5H142V260.028z"/>
	<path style="fill:#08375E;" d="M286.993,372.678H59.142c-4.142,0-7.5-3.357-7.5-7.5s3.358-7.5,7.5-7.5h227.852
		c4.143,0,7.5,3.357,7.5,7.5C294.493,369.32,291.136,372.678,286.993,372.678z"/>
	<path style="fill:#08375E;" d="M286.993,405.227H59.142c-4.142,0-7.5-3.357-7.5-7.5s3.358-7.5,7.5-7.5h227.852
		c4.143,0,7.5,3.357,7.5,7.5C294.493,401.87,291.136,405.227,286.993,405.227z"/>
</g>
<path style="fill:#FCC96C;" d="M422.018,370.832c-0.668,0-1.34-0.129-1.98-0.395c-1.936-0.801-3.196-2.689-3.196-4.784v-32.66
	H141.296c-2.859,0-5.177-2.318-5.177-5.178V27.97c0-2.86,2.318-5.177,5.177-5.177h365.527c2.858,0,5.177,2.316,5.177,5.177v299.846
	c0,2.859-2.318,5.178-5.177,5.178h-44.822l-36.322,36.322C424.69,370.306,423.365,370.832,422.018,370.832z"/>
<g style="opacity:0.1;">
	<path d="M166.509,327.815V27.97c0-2.86,2.318-5.177,5.177-5.177h-30.39c-2.859,0-5.177,2.316-5.177,5.177v299.846
		c0,2.859,2.318,5.178,5.177,5.178h30.39C168.827,332.993,166.509,330.675,166.509,327.815z"/>
</g>
<path style="fill:#FFFFFF;" d="M374.509,270.16h-100.9c-13.121,0-23.796,10.675-23.796,23.798v38.98h148.494v-38.98
	C398.306,280.835,387.632,270.16,374.509,270.16z"/>
<path style="opacity:0.1;enable-background:new    ;" d="M296.132,270.16h-22.523c-13.121,0-23.796,10.675-23.796,23.798v38.98
	h22.523v-38.98C272.335,280.835,283.01,270.16,296.132,270.16z"/>
<g>
	<path style="fill:#ABCCD3;" d="M326.938,303.965c-1.584,2.349-4.175,2.351-5.759,0l-4.62-6.855v35.829h15v-35.83L326.938,303.965z"
		/>
	<path style="fill:#ABCCD3;" d="M301.274,274.432c-1.583-2.351-0.562-4.271,2.271-4.271h-21.802c-2.833,0-3.991,2.008-2.575,4.46
		l20.511,35.531c1.417,2.453,3.734,2.454,5.151,0l9.467-16.396L301.274,274.432z"/>
	<path style="fill:#ABCCD3;" d="M366.374,270.16h-21.803c2.833,0,3.855,1.923,2.272,4.271l-13.023,19.323l9.468,16.396
		c1.416,2.454,3.734,2.453,5.15,0l20.512-35.531C370.366,272.168,369.207,270.16,366.374,270.16z"/>
</g>
<path style="fill:#FFAF68;" d="M344.571,270.16c2.833,0,3.855,1.923,2.272,4.271l-19.905,29.533c-1.584,2.349-4.175,2.351-5.759,0
	l-19.904-29.533c-1.583-2.351-0.562-4.271,2.271-4.271H344.571z"/>
<path style="fill:#08375E;" d="M326.44,84.426c-1.919,0-3.838-0.733-5.303-2.196l-12.376-12.374
	c-2.93-2.929-2.93-7.678-0.001-10.606c2.928-2.93,7.677-2.929,10.606-0.001l7.073,7.071l5.849-5.85c2.93-2.928,7.678-2.928,10.607,0
	c2.929,2.93,2.929,7.678,0,10.607l-11.152,11.152C330.278,83.693,328.358,84.426,326.44,84.426z"/>
<g>
	<path style="fill:#FFCFAB;" d="M250.936,200.195v-35.696h-15.805c-8.812,0-15.953,7.142-15.953,15.951v27.117
		c0,8.809,7.141,15.951,15.953,15.951h3.189c6.077,0,11.357-3.399,14.05-8.398C251.44,210.286,250.936,205.301,250.936,200.195z"/>
	<path style="fill:#FFCFAB;" d="M412.986,164.499h-15.923v35.696c0,5.043-0.494,9.968-1.402,14.747
		c2.663,5.094,7.99,8.576,14.138,8.576h3.188c8.812,0,15.952-7.142,15.952-15.951V180.45
		C428.939,171.641,421.798,164.499,412.986,164.499z"/>
</g>
<g>
	<path style="fill:#CB7C52;" d="M250.936,200.195v-12.78c-1.063-0.577-2.281-0.905-3.576-0.905h-10.37c-4.142,0-7.5,3.357-7.5,7.5
		s3.358,7.5,7.5,7.5h10.371c1.299,0,2.521-0.331,3.586-0.912C250.946,200.463,250.936,200.33,250.936,200.195z"/>
	<path style="fill:#CB7C52;" d="M411.657,186.51h-10.368c-1.568,0-3.022,0.482-4.226,1.305v12.381c0,0,0,0.007,0,0.01
		c1.203,0.822,2.657,1.305,4.226,1.305h10.368c4.143,0,7.5-3.357,7.5-7.5C419.157,189.867,415.8,186.51,411.657,186.51z"/>
</g>
<path style="fill:#FFCFAB;" d="M387.293,159.476c-23.471,0-43.676-13.934-52.828-33.975c-9.156,20.04-29.359,33.975-52.832,33.975
	h-36.105v40.719c0,43.373,35.158,78.532,78.531,78.532c43.37,0,78.532-35.159,78.532-78.532v-40.719L387.293,159.476
	L387.293,159.476z"/>
<g>
	<path style="fill:#AB5436;" d="M284.968,201.529c-4.143,0-7.5-3.357-7.5-7.5v-11.442c0-4.143,3.357-7.5,7.5-7.5s7.5,3.357,7.5,7.5
		v11.442C292.468,198.172,289.11,201.529,284.968,201.529z"/>
	<path style="fill:#AB5436;" d="M363.15,201.529c-4.143,0-7.5-3.357-7.5-7.5v-11.442c0-4.143,3.357-7.5,7.5-7.5s7.5,3.357,7.5,7.5
		v11.442C370.65,198.172,367.293,201.529,363.15,201.529z"/>
	<path style="fill:#AB5436;" d="M329.679,219.688h-6.089c-6.976,0-12.651-5.676-12.651-12.651v-14.924c0-4.143,3.357-7.5,7.5-7.5
		s7.5,3.357,7.5,7.5v12.575h3.74c4.143,0,7.5,3.357,7.5,7.5S333.821,219.688,329.679,219.688z"/>
</g>
<path style="fill:#FFFFFF;" d="M324.06,260.164c-11.308,0-20.511-9.2-20.511-20.511c0-2.63,2.131-4.759,4.76-4.759h31.5
	c2.629,0,4.76,2.129,4.76,4.759C344.569,250.964,335.369,260.164,324.06,260.164z"/>
<path style="fill:#08375E;" d="M355.947,75.022h-63.778c-32.068,0-58.064,25.996-58.064,58.065V164.5h47.528
	c23.473,0,43.676-13.935,52.832-33.975c9.152,20.04,29.357,33.975,52.828,33.975h26.721v-31.413
	C414.014,101.019,388.018,75.022,355.947,75.022z"/>
<g style="opacity:0.1;">
	<path d="M320.245,75.022h-28.076c-32.068,0-58.064,25.996-58.064,58.065V164.5h28.076v-31.413
		C262.181,101.019,288.177,75.022,320.245,75.022z"/>
</g>
<g>
</g>
<g>
</g>
<g>
</g>
<g>
</g>
<g>
</g>
<g>
</g>
<g>
</g>
<g>
</g>
<g>
</g>
<g>
</g>
<g>
</g>
<g>
</g>
<g>
</g>
<g>
</g>
<g>
</g>
</svg>
